<?xml version="1.0" encoding="UTF-8"?>
<svg width="1.2em" height="1.2em" viewBox="0 0 139 97" version="1.1" xmlns="http://www.w3.org/2000/svg" xmlns:xlink="http://www.w3.org/1999/xlink">
    <g id="Page-1" stroke="none" stroke-width="1" fill="none" fill-rule="evenodd">
        <g id="iO-logo" fill="currentColor" fill-rule="nonzero">
            <path d="M92.42,27.6 C105.03,27.6 115.28,37.86 115.28,50.46 C115.28,63.06 105.02,73.32 92.42,73.32 C79.82,73.32 69.56,63.06 69.56,50.46 C69.56,37.86 79.82,27.6 92.42,27.6 Z M92.42,4.74 C67.17,4.74 46.7,25.21 46.7,50.46 C46.7,75.71 67.17,96.18 92.42,96.18 C117.67,96.18 138.14,75.71 138.14,50.46 C138.15,25.21 117.68,4.74 92.42,4.74 Z" id="Shape"></path>
            <g id="Group">
                <path d="M21.8,35.94 L0.26,84.32 L24.52,95.12 L35.26,70.99 C41.22,57.6 35.19,41.9 21.8,35.94 Z" id="Shape"></path>
                <path d="M8.34,0.88 C2.38,14.28 8.4,29.97 21.8,35.94 L32.6,11.68 L8.34,0.88 Z" id="Shape"></path>
            </g>
        </g>
    </g>
</svg>